# xmcd
#
# Track frame offsets: 
#        150
#        14426
#        29511
#        46283
#        57101
#        70404
#        83764
#        103976
#        125164
#        135467
#        152426
#        173781
#        186193
#
# Disc length: 2698 seconds
#
# Revision: 0
# Processed by: cddbd v1.5.2PL0 Copyright (c) Steve Scherf et al.
# Submitted via: ExactAudioCopy v1.0b3
#
DISCID=b00a880d
DTITLE=Pavel Bobek - Zvláštní věc
DYEAR=1993
DGENRE=Country
TTITLE0=Zvláštní věc
TTITLE1=Z nebe padá ranní déšt
TTITLE2=Nepřekročíš svůj stín
TTITLE3=Kobylka
TTITLE4=Ginny Come Lately
TTITLE5=Country Boy
TTITLE6=Znáš mě nejlíp
TTITLE7=Vež tónu a slov
TTITLE8=Je mi líto všech andělů
TTITLE9=Otec a syn
TTITLE10=Vídeňský Waltz
TTITLE11=Co můžem víc než věřit
TTITLE12=Bůh má mě rád
EXTD=
EXTT0=
EXTT1=
EXTT2=
EXTT3=
EXTT4=
EXTT5=
EXTT6=
EXTT7=
EXTT8=
EXTT9=
EXTT10=
EXTT11=
EXTT12=
PLAYORDER=
